HIERARCHY
ROOT Hips
{
	OFFSET	0.00	0.00	0.00
	CHANNELS 6 Xposition Yposition Zposition Zrotation Xrotation Yrotation
	JOINT Spine
	{
		OFFSET	 0.00	0.01	 0.00
		CHANNELS 3 Zrotation Xrotation Yrotation
		JOINT Spine1
		{
			OFFSET	 0.00	 2.45913012437421	 0.00
			CHANNELS 3 Zrotation Xrotation Yrotation
            JOINT Neck
            {
                OFFSET	 0.00	 2.48462964506057	 0.00
                CHANNELS 3 Zrotation Xrotation Yrotation
                JOINT Head
                {
                    OFFSET	 0.00	 0.927524780924562	 0.00
                    CHANNELS 3 Zrotation Xrotation Yrotation
                    End Site 
                    {
                        OFFSET	 0.00	 1.14999962169752	 0.00
                    }
                }
            }
			JOINT LeftShoulder
			{
				OFFSET	 0.00	 2.48462964506057	 0.00
				CHANNELS 3 Zrotation Xrotation Yrotation
				JOINT LeftUpArm
				{
					OFFSET	 0.00	 1.24881979654096	 0.00
					CHANNELS 3 Zrotation Xrotation Yrotation
					JOINT LeftForeArm
					{
						OFFSET	 0.00	2.59758046908119	 0.00
						CHANNELS 3 Zrotation Xrotation Yrotation
						JOINT LeftHand
						{
							OFFSET	 0.00	2.45542024364365	 0.00
							CHANNELS 3 Zrotation Xrotation Yrotation
							JOINT LeftHandThumb 
							{
								OFFSET	 0.00	0.00	 0.00
								CHANNELS 3 Zrotation Xrotation Yrotation
								End Site
								{
									OFFSET	 0.00	0.00	1.00000003353624
								}
							}
							JOINT L_Wrist_End 
							{
								OFFSET	 0.00	0.99999967115358	 0.00
								CHANNELS 3 Zrotation Xrotation Yrotation
								End Site 
								{
									OFFSET	 0.00	 0.00	 0.00
								}
							}
						}
					}
				}
			}
			JOINT RightShoulder
			{
				OFFSET	 0.00	 2.48462964506057	 0.00
				CHANNELS 3 Zrotation Xrotation Yrotation
				JOINT RightUpArm
				{
					OFFSET	 0.00	 1.24881979654096	 0.00
					CHANNELS 3 Zrotation Xrotation Yrotation
					JOINT RightForeArm
					{
						OFFSET	 0.00	2.59758046908119	 0.00
						CHANNELS 3 Zrotation Xrotation Yrotation
						JOINT RightHand
						{
							OFFSET	 0.00	2.45542024364365	 0.00
							CHANNELS 3 Zrotation Xrotation Yrotation
							JOINT RightHandThumb 
							{
								OFFSET	 0.00	0.00	 0.00
								CHANNELS 3 Zrotation Xrotation Yrotation
								End Site
								{
									OFFSET	 0.00	0.00	1.00000003353624
								}
							}
							JOINT R_Wrist_End 
							{
								OFFSET	 0.00	0.99999967115358	 0.00
								CHANNELS 3 Zrotation Xrotation Yrotation
								End Site 
								{
									OFFSET	 0.00	 0.00	 0.00
								}
							}
						}
					}
				}
			}
		}
	}
	JOINT LeftUpLeg
	{
		OFFSET	 1.2719394002717	 0.00	 0.00
		CHANNELS 3 Zrotation Xrotation Yrotation
		JOINT LeftLowLeg
		{
			OFFSET	 0.00	-4.3429100912261	 0.00
			CHANNELS 3 Zrotation Xrotation Yrotation
			JOINT LeftFoot
			{
				OFFSET	 0.00	-4.48767017425826	 0.00
				CHANNELS 3 Zrotation Xrotation Yrotation
				JOINT LeftToeBase
                {
                    OFFSET	 0.00	0.00	 1.51507020887566
                    CHANNELS 3 Zrotation Xrotation Yrotation
                    End Site 
                    {
                        OFFSET	 0.00	0.00	 0.75000010571191
                    }
                }
			}
		}
	}
	JOINT RightUpLeg
	{
		OFFSET	 -1.2719393604653	 0.00	 0.00
		CHANNELS 3 Zrotation Xrotation Yrotation
		JOINT RightLowLeg
		{
			OFFSET	 0.00	-4.3429100912261	 0.00
			CHANNELS 3 Zrotation Xrotation Yrotation
			JOINT RightFoot
			{
				OFFSET	 0.00	-4.48767017425826	 0.00
				CHANNELS 3 Zrotation Xrotation Yrotation
				JOINT RightToeBase
                {
                    OFFSET	 0.00	0.00	 1.51507020887566
                    CHANNELS 3 Zrotation Xrotation Yrotation
                    End Site 
                    {
                        OFFSET	 0.00	0.00	 0.749999965609858
                    }
                }   
			}
		}
	}
}
MOTION 
Frames:	6 
Frame Time: 0.02 
 1.7457899475097656 -4.14385986328125 9.373880004882812 -151.764 80.567 146.878 2.61604 -7.85943 0.190969 5.14257 -10.979 0.63536 -16.5391 68.6957 6.80998 80.874 -77.6844 784.394 -114.529 -12.6917 -16.1511 15.0052 9.96683 -25.0893 0.0 13.7963 0.0 22.4701 -5.76283 20.8012 0.0 0.0 0.0 0.0 0.0 0.0 112.0069 -8.1666 -355.75 -12.2652 -3.07995 44.6714 0.0 17.9487 0.0 -22.2236 -13.4113 -50.996 0.0 0.0 0.0 0.0 0.0 0.0 4.57349 -5.55272 8.70803 0.0 6.94023 0.0 -16.0694 -0.083200455 10.8173 0.0 -31.1269 0.0 5.99998 -7.10493 5.60628 0.0 9.14488 0.0 18.9915 5.26991 -15.7087 0.0 -38.1422 0.0 
  1.7439100646972656 -4.150360107421875 9.37322021484375 -151.936 80.5219 147.039 2.57182 -7.86943 0.200226 5.20097 -11.0209 0.655545 -16.4112 68.9532 6.65764 80.3794 -77.5917 783.92 -114.720505 -12.8845 -15.9125 14.9824 9.70383 -25.419 0.0 14.1382 0.0 22.7183 -5.6731 21.035 0.0 0.0 0.0 0.0 0.0 0.0 112.2056 -8.36265 -356.054 -12.3202 -3.0671 44.0832 0.0 17.7807 0.0 -22.5485 -12.5049 -51.425 0.0 0.0 0.0 0.0 0.0 0.0 4.5788 -5.54162 8.68415 0.0 6.90408 0.0 -16.0809 -0.12160015 10.8414 0.0 -31.0898 0.0 6.0112 -7.06825 5.64208 0.0 9.05229 0.0 19.0065 5.23709 -15.7646 0.0 -38.0582 0.0 
  1.7423399353027345 -4.156270141601563 9.3725 -152.023 80.5017 147.102 2.54412 -7.8389 0.228604 5.23745 -11.0928 0.694824 -16.2829 69.2138 6.50086 79.5833 -77.4965 783.165 -114.866 -13.0657 -15.7152 14.8137 9.43321 -25.7442 0.0 14.5557 0.0 23.0704 -5.42402 21.1845 0.0 0.0 0.0 0.0 0.0 0.0 112.3881 -8.55597 -356.488 -12.2955 -3.09468 43.6728 0.0 17.7239 0.0 -22.8911 -12.0505 -51.4417 0.0 0.0 0.0 0.0 0.0 0.0 4.58479 -5.51724 8.69162 0.0 6.89517 0.0 -16.1234 -0.1651001 10.8345 0.0 -31.0792 0.0 6.01657 -7.01646 5.61299 0.0 8.97286 0.0 19.0231 5.2277 -15.7536 0.0 -38.0341 0.0 
  1.7411500549316405 -4.161579895019531 9.371740112304687 -152.077 80.4934 147.138 2.52614 -7.77824 0.239576 5.25081 -11.1818 0.715335 -16.0107 69.5133 6.18069 78.8136 -77.3609 782.579 -115.058 -13.3084 -15.4895 14.6492 9.21281 -26.0974 0.0 14.9679 0.0 23.3921 -5.08495 20.9143 0.0 0.0 0.0 0.0 0.0 0.0 112.537796 -8.71132 -356.884 -12.2078 -3.12883 43.2495 0.0 17.671 0.0 -22.9341 -11.8249 -51.0988 0.0 0.0 0.0 0.0 0.0 0.0 4.58277 -5.49449 8.62994 0.0 6.90354 0.0 -16.1324 -0.22570038 10.9045 0.0 -31.0616 0.0 6.02315 -6.96725 5.66251 0.0 8.92388 0.0 19.0588 5.1796503 -15.8011 0.0 -37.955902 0.0 
  1.740570068359375 -4.166239929199219 9.37125 -152.139 80.4827 147.191 2.52584 -7.76549 0.260853 5.24277 -11.1917 0.738642 -15.9732 69.8082 6.15435 78.2087 -77.2394 781.962 -115.2959 -13.5091 -15.3536 14.4819 9.0431 -26.2834 0.0 15.3688 0.0 23.6217 -4.76738 20.8129 0.0 0.0 0.0 0.0 0.0 0.0 112.6895 -8.92894 -357.224 -12.026 -3.05785 43.2053 0.0 17.6646 0.0 -22.8875 -11.5862 -50.8188 0.0 0.0 0.0 0.0 0.0 0.0 4.57855 -5.48563 8.58458 0.0 6.92152 0.0 -16.1749 -0.28499985 10.9449 0.0 -31.1006 0.0 6.02373 -6.93292 5.69211 0.0 8.8832 0.0 19.0881 5.1551704 -15.8341 0.0 -37.9478 0.0 
  1.7395700073242188 -4.171549987792969 9.370999755859375 -152.154 80.4802 147.228 2.53563 -7.78057 0.270032 5.2149 -11.1561 0.74477 -15.7758 70.1224 5.90994 77.5722 -77.1321 781.358 -115.5524 -13.6951 -15.0691 14.3446 8.85044 -26.3844 0.0 15.7516 0.0 23.87 -4.47629 20.6842 0.0 0.0 0.0 0.0 0.0 0.0 112.8545 -9.13193 -357.512 -11.7702 -2.98083 43.3248 0.0 17.6957 0.0 -22.8151 -11.0873 -50.3417 0.0 0.0 0.0 0.0 0.0 0.0 4.58275 -5.46585 8.58967 0.0 6.93956 0.0 -16.2022 -0.3104 10.9 0.0 -31.056 0.0 6.02648 -6.88007 5.70374 0.0 8.84058 0.0 19.1263 5.11946 -15.8785 0.0 -37.9099 0.0 
